HIERARCHY
ROOT Hips
{
	OFFSET 0.000000 0.000000 0.000000
	CHANNELS 6 Xposition Yposition Zposition Zrotation Yrotation Xrotation 
	JOINT LowerBack
	{
		OFFSET 0.000000 0.000000 0.000000
		CHANNELS 3 Zrotation Yrotation Xrotation
		JOINT Spine
		{
			OFFSET 0.028270 2.035590 -0.193380
			CHANNELS 3 Zrotation Yrotation Xrotation
			JOINT Spine1
			{
				OFFSET 0.056720 2.048850 -0.042750
				CHANNELS 3 Zrotation Yrotation Xrotation
				JOINT Neck
				{
					OFFSET 0.000000 0.000000 0.000000
					CHANNELS 3 Zrotation Yrotation Xrotation
					JOINT Neck1
					{
						OFFSET -0.054170 1.746240 0.172020
						CHANNELS 3 Zrotation Yrotation Xrotation
						JOINT Head
						{
							OFFSET 0.104070 1.761360 -0.123970
							CHANNELS 3 Zrotation Yrotation Xrotation
							End Site
							{
								OFFSET 0.000000 0.000000 0.000000
							}
						}
					}
				}
				JOINT LeftShoulder
				{
					OFFSET 0.000000 0.000000 0.000000
					CHANNELS 3 Zrotation Yrotation Xrotation
					JOINT LeftArm
					{
						OFFSET 3.362410 1.200890 -0.311210
						CHANNELS 3 Zrotation Yrotation Xrotation
						JOINT LeftForeArm
						{
							OFFSET 4.983000 -0.000000 -0.000000
							CHANNELS 3 Zrotation Yrotation Xrotation
							JOINT LeftHand
							{
								OFFSET 3.483560 -0.000000 -0.000000
								CHANNELS 3 Zrotation Yrotation Xrotation
								JOINT LeftFingerBase
								{
									OFFSET 0.000000 0.000000 0.000000
									CHANNELS 3 Zrotation Yrotation Xrotation
									JOINT LeftHandIndex1
									{
										OFFSET 0.715260 -0.000000 -0.000000
										CHANNELS 3 Zrotation Yrotation Xrotation
										End Site
										{
											OFFSET 0.000000 0.000000 0.000000
										}
									}
								}
								JOINT LThumb
								{
									OFFSET 0.000000 0.000000 0.000000
									CHANNELS 3 Zrotation Yrotation Xrotation
									End Site
									{
										OFFSET 0.000000 0.000000 0.000000
									}
								}
							}
						}
					}
				}
				JOINT RightShoulder
				{
					OFFSET 0.000000 0.000000 0.000000
					CHANNELS 3 Zrotation Yrotation Xrotation
					JOINT RightArm
					{
						OFFSET -3.136600 1.374050 -0.404650
						CHANNELS 3 Zrotation Yrotation Xrotation
						JOINT RightForeArm
						{
							OFFSET -5.241900 -0.000000 -0.000000
							CHANNELS 3 Zrotation Yrotation Xrotation
							JOINT RightHand
							{
								OFFSET -3.444170 -0.000000 -0.000000
								CHANNELS 3 Zrotation Yrotation Xrotation
								JOINT RightFingerBase
								{
									OFFSET 0.000000 0.000000 0.000000
									CHANNELS 3 Zrotation Yrotation Xrotation
									JOINT RightHandIndex1
									{
										OFFSET -0.622530 -0.000000 -0.000000
										CHANNELS 3 Zrotation Yrotation Xrotation
										End Site
										{
											OFFSET 0.000000 0.000000 0.000000
										}
									}
								}
								JOINT RThumb
								{
									OFFSET 0.000000 0.000000 0.000000
									CHANNELS 3 Zrotation Yrotation Xrotation
									End Site
									{
										OFFSET 0.000000 0.000000 0.000000
									}
								}
							}
						}
					}
				}
			}
		}
	}
}
}
MOTION
Frames: 12
Frame Time: 0.008333
-3.366205 16.757092 -1.572075 31.862153 80.898441 28.097714 -1.533429 -5.766667 0.697468 -0.700616 -5.792080 -1.872550 -5.567611 -5.731756 3.125118 9.624566 -18.467398 -9.910963 -2.468456 -0.154065 -0.575407 0.000000 0.000000 0.000000 0.531925 12.900282 1.775915 -29.289322 -8.212427 -0.885795 -2.412201 -41.712097 -0.008506 3.664793 0.876852 0.026234 -0.168264 0.125078 0.000000 0.000000 0.000000 0.000000 0.000000 0.000000 0.000000 16.301294 -18.398377 -0.262208 75.996410 -22.815993 -23.772367 4.733937 7.575335 0.002172 3.543922 1.149504 0.034398 0.112044 0.004371 -0.000000 0.000000 0.000000 0.000000 0.000000 0.000000 0.000000 
-3.230430 16.756814 -1.512957 31.581807 80.639232 27.601445 -1.420546 -5.746240 0.702033 -0.671558 -5.777302 -1.876286 -5.535518 -5.719109 3.112602 9.525459 -18.483904 -9.873199 -2.483001 -0.156019 -0.565478 0.000000 0.000000 0.000000 0.396056 13.044948 1.730524 -29.623937 -8.000589 -0.812226 -2.396709 -42.150002 -0.008227 3.630357 0.845131 0.024941 -0.166996 0.123862 0.000000 0.000000 0.000000 0.000000 0.000000 0.000000 0.000000 16.265721 -18.382019 -0.300492 75.669422 -22.819784 -23.873597 4.745730 7.590442 0.002285 3.563705 1.178345 0.035500 0.112629 0.003715 -0.000000 0.000000 0.000000 0.000000 0.000000 0.000000 0.000000 
-3.095749 16.758349 -1.452774 31.104327 80.356981 26.915908 -1.293182 -5.714277 0.702833 -0.641471 -5.751839 -1.882051 -5.508260 -5.695581 3.099019 9.439612 -18.494386 -9.834026 -2.499641 -0.158190 -0.555260 0.000000 0.000000 0.000000 0.265934 13.199711 1.680950 -30.041828 -7.769242 -0.731043 -2.385546 -42.574375 -0.007889 3.573172 0.818810 0.023750 -0.165677 0.122245 0.000000 0.000000 0.000000 0.000000 0.000000 0.000000 0.000000 16.244020 -18.350904 -0.339687 75.331109 -22.756101 -23.939403 4.755710 7.619404 0.002442 3.596967 1.226347 0.037304 0.112994 0.002920 -0.000000 0.000000 0.000000 0.000000 0.000000 0.000000 0.000000 
-2.962888 16.761348 -1.391718 30.441979 80.036243 26.059265 -1.156403 -5.670504 0.699597 -0.611213 -5.715026 -1.890334 -5.485201 -5.660623 3.082844 9.365757 -18.489347 -9.792946 -2.517036 -0.160469 -0.544589 0.000000 0.000000 0.000000 0.144696 13.356583 1.628802 -30.541740 -7.492816 -0.653839 -2.378671 -42.995840 -0.007487 3.488257 0.797003 0.022658 -0.164289 0.120243 0.000000 0.000000 0.000000 0.000000 0.000000 0.000000 0.000000 16.225580 -18.294466 -0.376404 74.993889 -22.619583 -23.985462 4.763059 7.657033 0.002644 3.632983 1.291470 0.039708 0.113213 0.001948 -0.000000 0.000000 0.000000 0.000000 0.000000 0.000000 0.000000 
-2.832506 16.765434 -1.329976 29.620574 79.661942 25.061829 -1.014307 -5.615227 0.693858 -0.581213 -5.666802 -1.900534 -5.465157 -5.614229 3.065180 9.301519 -18.464437 -9.752359 -2.532846 -0.162615 -0.534125 0.000000 0.000000 0.000000 0.026035 13.526398 1.576052 -31.109938 -7.176607 -0.578506 -2.376247 -43.412935 -0.007024 3.375262 0.779054 0.021467 -0.162880 0.117897 0.000000 0.000000 0.000000 0.000000 0.000000 0.000000 0.000000 16.198183 -18.208013 -0.408481 74.668965 -22.399487 -24.024636 4.766853 7.697794 0.002893 3.659836 1.372575 0.042613 0.113372 0.000759 -0.000000 0.000000 0.000000 0.000000 0.000000 0.000000 0.000000 
-2.705173 16.770108 -1.267738 28.680235 79.222109 23.967744 -0.872179 -5.549103 0.685911 -0.552111 -5.607389 -1.912698 -5.446988 -5.556713 3.045398 9.244145 -18.414142 -9.712592 -2.545490 -0.164486 -0.523925 0.000000 0.000000 0.000000 -0.091621 13.705907 1.524496 -31.737940 -6.806504 -0.508343 -2.378183 -43.830354 -0.006501 3.232677 0.764259 0.020276 -0.161463 0.115205 0.000000 0.000000 0.000000 0.000000 0.000000 0.000000 0.000000 16.150845 -18.085754 -0.433498 74.367951 -22.092409 -24.066842 4.766347 7.742465 0.003194 3.668792 1.469221 0.045720 0.113534 -0.000689 -0.000000 0.000000 0.000000 0.000000 0.000000 0.000000 0.000000 
-2.581333 16.774938 -1.205121 27.669116 78.709228 22.828308 -0.734762 -5.473494 0.676285 -0.524374 -5.537747 -1.926598 -5.429559 -5.489097 3.023525 9.190966 -18.336409 -9.674415 -2.553606 -0.165954 -0.514172 0.000000 0.000000 0.000000 -0.211490 13.894075 1.475723 -32.414556 -6.376445 -0.441359 -2.384320 -44.248710 -0.005924 3.061569 0.751716 0.019084 -0.160067 0.112166 0.000000 0.000000 0.000000 0.000000 0.000000 0.000000 0.000000 16.075012 -17.926067 -0.449987 74.100212 -21.696100 -24.116765 4.760906 7.795026 0.003547 3.653788 1.581773 0.049126 0.113738 -0.002430 -0.000000 0.000000 0.000000 0.000000 0.000000 0.000000 0.000000 
-2.461210 16.779497 -1.142230 26.638545 78.121564 21.696080 -0.606382 -5.390267 0.665796 -0.498416 -5.459403 -1.941880 -5.411950 -5.412939 2.999622 9.139835 -18.231771 -9.638294 -2.556413 -0.166943 -0.504966 0.000000 0.000000 0.000000 -0.336388 14.088037 1.430990 -33.127716 -5.883355 -0.372553 -2.394421 -44.665213 -0.005305 2.865007 0.740709 0.017793 -0.158725 0.108762 0.000000 0.000000 0.000000 0.000000 0.000000 0.000000 0.000000 15.965914 -17.730469 -0.457440 73.871815 -21.211471 -24.173023 4.750129 7.862956 0.003958 3.612634 1.711307 0.052536 0.113995 -0.004489 -0.000000 0.000000 0.000000 0.000000 0.000000 0.000000 0.000000 
-2.344953 16.783474 -1.079089 25.635431 77.463922 20.617504 -0.490746 -5.301750 0.655447 -0.474640 -5.374428 -1.958079 -5.393656 -5.330302 2.973850 9.089733 -18.103265 -9.604293 -2.553908 -0.167450 -0.496309 0.000000 0.000000 0.000000 -0.468140 14.283459 1.390933 -33.867043 -5.327344 -0.294898 -2.408190 -45.074358 -0.004657 2.647958 0.730310 0.016401 -0.157469 0.104969 0.000000 0.000000 0.000000 0.000000 0.000000 0.000000 0.000000 15.823862 -17.503569 -0.456418 73.684886 -20.641679 -24.228122 4.733856 7.955597 0.004427 3.547008 1.859517 0.056048 0.114281 -0.006870 -0.000000 0.000000 0.000000 0.000000 0.000000 0.000000 0.000000 
-2.232510 16.786652 -1.015727 24.694020 76.745709 19.624753 -0.390842 -5.210445 0.646487 -0.453463 -5.285165 -1.974406 -5.374714 -5.243459 2.947218 9.041050 -17.956133 -9.573038 -2.546654 -0.167510 -0.488383 0.000000 0.000000 0.000000 -0.608249 14.481742 1.355647 -34.622105 -4.722691 -0.195631 -2.425585 -45.461697 -0.004000 2.418567 0.719117 0.015008 -0.156357 0.100781 0.000000 0.000000 0.000000 0.000000 0.000000 0.000000 0.000000 15.654516 -17.252582 -0.448831 73.537677 -19.991905 -24.271847 4.712339 8.083852 0.004948 3.463552 2.027419 0.059759 0.114541 -0.009562 -0.000000 0.000000 0.000000 0.000000 0.000000 0.000000 0.000000 
-2.123757 16.788997 -0.952041 23.835294 75.981191 18.737060 -0.308650 -5.118785 0.637862 -0.435256 -5.194041 -1.991376 -5.355459 -5.154836 2.917826 8.994190 -17.797568 -9.541824 -2.536431 -0.167321 -0.480375 0.000000 0.000000 0.000000 -0.752042 14.656503 1.324425 -35.390287 -4.042777 -0.074204 -2.445547 -45.831812 -0.003344 2.181178 0.706833 0.013615 -0.155343 0.096100 0.000000 0.000000 0.000000 0.000000 0.000000 0.000000 0.000000 15.465856 -16.986985 -0.435387 73.424657 -19.270726 -24.279432 4.685880 8.256578 0.005519 3.368605 2.216651 0.063473 0.114714 -0.012522 -0.000000 0.000000 0.000000 0.000000 0.000000 0.000000 0.000000 
-2.018455 16.790505 -0.888017 23.066914 75.185159 17.958246 -0.244909 -5.028628 0.630737 -0.420388 -5.102983 -2.007784 -5.337034 -5.066194 2.888245 8.952283 -17.634246 -9.511930 -2.524809 -0.166988 -0.472704 0.000000 0.000000 0.000000 -0.899584 14.821462 1.296255 -36.163630 -3.328221 0.088944 -2.468625 -46.154875 -0.002714 1.947997 0.691301 0.012121 -0.154520 0.090973 0.000000 0.000000 0.000000 0.000000 0.000000 0.000000 0.000000 15.272686 -16.715767 -0.420065 73.336717 -18.485031 -24.240518 4.655408 8.482787 0.006128 3.274385 2.425863 0.067590 0.114718 -0.015702 -0.000000 0.000000 0.000000 0.000000 0.000000 0.000000 0.000000 
